<?xml version="1.0" encoding="utf-8"?>
<!-- Generator: Adobe Illustrator 21.1.0, SVG Export Plug-In . SVG Version: 6.00 Build 0)  -->
<svg version="1.1" id="Layer_1" xmlns="http://www.w3.org/2000/svg" xmlns:xlink="http://www.w3.org/1999/xlink" x="0px" y="0px"
	 viewBox="0 0 300 300" style="enable-background:new 0 0 300 300;" xml:space="preserve">
<style type="text/css">
	.st0{fill:#FFFFFF;stroke:#726958;stroke-miterlimit:10;}
	.st1{fill:#DEDC1C;stroke:#726958;stroke-miterlimit:10;}
	.st2{fill:#A3BD31;stroke:#726958;stroke-miterlimit:10;}
	.st3{fill:#70A83B;stroke:#726958;stroke-miterlimit:10;}
	.st4{fill:#538E40;stroke:#726958;stroke-miterlimit:10;}
</style>
<g>
	<rect x="10.3" y="10.3" class="st0" width="139.7" height="139.7"/>
	<rect x="10.3" y="10.3" class="st1" width="69.8" height="69.8"/>
	<rect x="80.2" y="10.3" class="st2" width="69.8" height="69.8"/>
	<rect x="10.3" y="80.2" class="st2" width="139.7" height="139.6"/>
</g>
<g>
	<rect x="150" y="10.3" class="st0" width="139.7" height="139.7"/>
	<rect x="150" y="10.3" class="st1" width="69.8" height="69.8"/>
	<rect x="219.8" y="10.3" class="st2" width="69.8" height="69.8"/>
</g>
<g>
	<rect x="10.3" y="219.8" class="st2" width="69.8" height="69.8"/>
	<rect x="80.2" y="219.8" class="st1" width="69.8" height="69.8"/>
</g>
<g>
	<rect x="150" y="150" class="st0" width="139.7" height="139.7"/>
	<rect x="150" y="80.1" class="st1" width="139.6" height="139.7"/>
	<rect x="150" y="219.8" class="st2" width="69.8" height="69.8"/>
	<rect x="219.8" y="219.8" class="st1" width="69.8" height="69.8"/>
</g>
<rect x="132.6" y="132.6" class="st3" width="34.9" height="34.9"/>
<rect x="254.7" y="254.7" class="st4" width="34.9" height="34.9"/>
<rect x="167.5" y="167.4" class="st3" width="34.9" height="34.9"/>
<rect x="10.3" y="10.3" class="st4" width="34.9" height="34.9"/>
<rect x="97.7" y="97.6" class="st3" width="34.9" height="34.9"/>
</svg>
